0
SECTION
2
HEADER
9
$INSUNITS
70
4
9
$ACADVER
1
AC1014
9
$HANDSEED
5
FFFF
0
ENDSEC
0
SECTION
2
TABLES
0
TABLE
2
VPORT
5
8
100
AcDbSymbolTable
0
ENDTAB
0
TABLE
2
LTYPE
5
5
100
AcDbSymbolTable
0
LTYPE
5
14
100
AcDbSymbolTableRecord
100
AcDbLinetypeTableRecord
2
BYBLOCK
70
0
0
LTYPE
5
15
100
AcDbSymbolTableRecord
100
AcDbLinetypeTableRecord
2
BYLAYER
70
0
0
ENDTAB
0
TABLE
2
LAYER
5
2
100
AcDbSymbolTable
70
2
0
LAYER
5
50
100
AcDbSymbolTableRecord
100
AcDbLayerTableRecord
2
0
70
0
6
CONTINUOUS
0
ENDTAB
0
TABLE
2
STYLE
5
3
100
AcDbSymbolTable
70
1
0
STYLE
5
11
100
AcDbSymbolTableRecord
100
AcDbTextStyleTableRecord
2
STANDARD
70
0
0
ENDTAB
0
TABLE
2
VIEW
5
6
100
AcDbSymbolTable
70
0
0
ENDTAB
0
TABLE
2
UCS
5
7
100
AcDbSymbolTable
70
0
0
ENDTAB
0
TABLE
2
APPID
5
9
100
AcDbSymbolTable
70
2
0
APPID
5
12
100
AcDbSymbolTableRecord
100
AcDbRegAppTableRecord
2
ACAD
70
0
0
ENDTAB
0
TABLE
2
DIMSTYLE
5
A
100
AcDbSymbolTable
70
1
0
ENDTAB
0
TABLE
2
BLOCK_RECORD
5
1
100
AcDbSymbolTable
70
1
0
BLOCK_RECORD
5
1F
100
AcDbSymbolTableRecord
100
AcDbBlockTableRecord
2
*MODEL_SPACE
0
BLOCK_RECORD
5
1B
100
AcDbSymbolTableRecord
100
AcDbBlockTableRecord
2
*PAPER_SPACE
0
ENDTAB
0
ENDSEC
0
SECTION
2
BLOCKS
0
BLOCK
5
20
100
AcDbEntity
100
AcDbBlockBegin
2
*MODEL_SPACE
0
ENDBLK
5
21
100
AcDbEntity
100
AcDbBlockEnd
0
BLOCK
5
1C
100
AcDbEntity
100
AcDbBlockBegin
2
*PAPER_SPACE
0
ENDBLK
5
1D
100
AcDbEntity
100
AcDbBlockEnd
0
ENDSEC
0
SECTION
2
ENTITIES
0
CIRCLE
5
100
100
AcDbEntity
8
0
100
AcDbCircle
10
-182.69999999999999
20
153.58750000000001
30
0
40
1.6000000000000014
210
0
220
0
230
1
0
CIRCLE
5
101
100
AcDbEntity
8
0
100
AcDbCircle
10
-182.69999999999999
20
35.587499999999999
30
0
40
1.6000000000000014
210
0
220
0
230
1
0
CIRCLE
5
102
100
AcDbEntity
8
0
100
AcDbCircle
10
-99.700000000000003
20
35.587499999999999
30
0
40
1.6000000000000014
210
0
220
0
230
1
0
CIRCLE
5
103
100
AcDbEntity
8
0
100
AcDbCircle
10
-99.700000000000003
20
153.58750000000001
30
0
40
1.6000000000000014
210
0
220
0
230
1
0
LWPOLYLINE
5
104
100
AcDbEntity
8
0
100
AcDbPolyline
90
60
70
1
43
0.0
10
-179.88699999999997
20
78.727195256117838
42
-0.15664015019402264
10
-179.70000000000002
20
78.144931570147335
10
-179.69999999999999
20
35.587499999999999
42
-0.99999999999999989
10
-185.69999999999999
20
35.587499999999999
10
-185.69999999999999
20
153.61250000000001
42
-0.41421356237309503
10
-182.69999999999999
20
156.61250000000001
10
-99.700000000000003
20
156.61250000000001
42
-0.41421356237309503
10
-96.700000000000017
20
153.61250000000001
10
-96.700000000000003
20
35.587499999999999
42
-0.99999999999999989
10
-102.70000000000002
20
35.587499999999999
10
-102.70000000000002
20
77.824257580454443
42
-0.17754470554104512
10
-102.46300000000002
20
78.470656064363553
42
0.36664689955139873
10
-102.46300000000002
20
83.641843935636473
42
-0.17754470554103516
10
-102.70000000000002
20
84.288242419545583
10
-102.70000000000002
20
101.63675758045443
42
-0.17754470554103516
10
-102.46300000000002
20
102.28315606436354
42
0.36664689955140017
10
-102.46300000000002
20
107.45434393563649
42
-0.17754470554103516
10
-102.70000000000002
20
108.1007424195456
10
-102.70000000000002
20
115.92425758045444
42
-0.17754470554103516
10
-102.46300000000002
20
116.57065606436355
42
0.36664689955139823
10
-102.46300000000002
20
121.74184393563647
42
-0.17754470554103516
10
-102.70000000000002
20
122.38824241954558
10
-102.70000000000002
20
139.73675758045442
42
-0.17754470554102691
10
-102.46300000000002
20
140.38315606436356
42
0.36664689955139551
10
-102.46299999999998
20
145.55434393563644
42
-0.17754470554102061
10
-102.70000000000002
20
146.20074241954558
10
-102.70000000000002
20
147.61250000000001
42
0.41421356237308815
10
-105.70000000000002
20
150.61250000000001
10
-105.95616666750084
20
150.61250000000001
42
-0.25098845235327966
10
-106.78868333400068
20
151.05850000000001
42
0.53572501061765554
10
-113.44881666599933
20
151.05850000000001
42
-0.2509884523532836
10
-114.28133333249917
20
150.61250000000001
10
-129.76866666750081
20
150.61250000000001
42
-0.25098845235327966
10
-130.60118333400067
20
151.05850000000001
42
0.53572501061765709
10
-137.26131666599935
20
151.05850000000001
42
-0.25098845235328227
10
-138.0938333324992
20
150.61250000000001
10
-144.05616666750083
20
150.61250000000001
42
-0.25098845235327966
10
-144.88868333400066
20
151.05850000000001
42
0.5357250106176582
10
-151.54881666599937
20
151.05849999999998
42
-0.25098845235329748
10
-152.3813333324992
20
150.61249999999998
10
-167.86866666750083
20
150.61250000000001
42
-0.25098845235331874
10
-168.70118333400063
20
151.05850000000001
42
0.53572501061765909
10
-175.36131666599937
20
151.05850000000001
42
-0.25098845235328276
10
-176.19383333249917
20
150.61249999999998
10
-176.69999999999993
20
150.61249999999998
42
0.41421356237309681
10
-179.69999999999999
20
147.61250000000001
10
-179.69999999999999
20
145.88006842985268
42
-0.15664015019399466
10
-179.88699999999997
20
145.29780474388215
42
0.32116033423636869
10
-179.887
20
140.63969525611788
42
-0.15664015019400204
10
-179.69999999999999
20
140.05743157014732
10
-179.69999999999996
20
122.06756842985268
42
-0.15664015019398841
10
-179.88699999999997
20
121.48530474388217
42
0.32116033423636869
10
-179.887
20
116.82719525611788
42
-0.15664015019400204
10
-179.69999999999999
20
116.24493157014733
10
-179.69999999999999
20
107.78006842985269
42
-0.15664015019399466
10
-179.88699999999997
20
107.19780474388217
42
0.32116033423636869
10
-179.887
20
102.53969525611788
42
-0.15664015019400204
10
-179.69999999999999
20
101.95743157014734
10
-179.69999999999996
20
83.96756842985269
42
-0.15664015019398841
10
-179.88699999999997
20
83.385304743882187
42
0.32116033423637258
0
ENDSEC
0
SECTION
2
OBJECTS
0
DICTIONARY
5
C
100
AcDbDictionary
3
ACAD_GROUP
350
D
3
ACAD_MLINESTYLE
350
17
0
DICTIONARY
5
D
100
AcDbDictionary
0
DICTIONARY
5
1A
330
C
100
AcDbDictionary
0
DICTIONARY
5
17
100
AcDbDictionary
0
ENDSEC
0
EOF
